<svg width="48" height="48" viewBox="0 0 48 48" fill="none" xmlns="http://www.w3.org/2000/svg">
<g clip-path="url(#clip0_154_279)">
<path d="M31 22C32.66 22 34 20.66 34 19C34 17.34 32.66 16 31 16C29.34 16 28 17.34 28 19C28 20.66 29.34 22 31 22ZM17 22C18.66 22 20 20.66 20 19C20 17.34 18.66 16 17 16C15.34 16 14 17.34 14 19C14 20.66 15.34 22 17 22ZM23.98 4C12.94 4 4 12.96 4 24C4 35.04 12.94 44 23.98 44C35.04 44 44 35.04 44 24C44 12.96 35.04 4 23.98 4ZM24 40C15.16 40 8 32.84 8 24C8 15.16 15.16 8 24 8C32.84 8 40 15.16 40 24C40 32.84 32.84 40 24 40ZM24 32C21.05 32 18.5 30.38 17.11 28H13.76C15.36 32.09 19.34 35 24 35C28.66 35 32.64 32.09 34.24 28H30.89C29.5 30.38 26.95 32 24 32Z" fill="#B7B0B0"/>
</g>
<defs>
<clipPath id="clip0_154_279">
<rect width="48" height="48" fill="white"/>
</clipPath>
</defs>
</svg>
