<?xml version="1.0" encoding="utf-8"?>
<!-- Generator: Adobe Illustrator 26.5.0, SVG Export Plug-In . SVG Version: 6.00 Build 0)  -->
<svg version="1.1" id="Layer_1" xmlns="http://www.w3.org/2000/svg" xmlns:xlink="http://www.w3.org/1999/xlink" x="0px" y="0px"
	 viewBox="0 0 227 50" style="enable-background:new 0 0 227 50;" xml:space="preserve">
<style type="text/css">
	.st0{fill:#FFFFFF;}
</style>
<g>
	<path class="st0" d="M64.2,23.6c-4.3-1.3-8.7-0.4-12,2.1l3.5,3c2.1-1.3,4.7-1.7,7.3-0.9c4.8,1.5,7.5,6.5,6,11.3
		c-1.5,4.8-6.5,7.5-11.3,6c-3.9-1.2-6.4-4.8-6.4-8.7l1.3,0l7.8,0l-6.1-5.2l-17.6-15l32.5-5l-39.5,0.2l-7.7,0l6,5.1l17.6,15l-32,4.9
		l9.1,0c0,0.9-0.1,1.8-0.4,2.6c-1.5,4.8-6.5,7.5-11.3,6s-7.5-6.5-6-11.3c1.5-4.8,6.5-7.5,11.3-6c2.4,0.7,4.3,2.4,5.4,4.5l4.5-0.7
		c-1.5-3.7-4.5-6.8-8.6-8c-7.1-2.2-14.7,1.9-16.8,9c-2.2,7.1,1.9,14.7,9,16.8c7.1,2.2,14.7-1.9,16.8-9c0.4-1.3,0.6-2.6,0.6-3.9
		l19.8,0c0,5.8,3.8,11.2,9.6,12.9c7.1,2.2,14.7-1.9,16.8-9C75.3,33.3,71.3,25.8,64.2,23.6z M66.7,7.1c0.7,0.8,1.7,1.3,2.9,1.3
		c2.3,0.1,4.1-1.7,4.2-4c0.1-2.3-1.7-4.1-4-4.2L60.3,0L66.7,7.1L66.7,7.1z"/>
	<path class="st0" d="M98.2,28h15v-3.9h-15v-5.9h18.3v-4.1H93.3v23.7h23.2v-4.1H98.2V28z M120.8,29.8H133v-3.6h-12.3V29.8z
		 M161.8,26.1c0.7-0.5,1.2-1.1,1.6-1.9c0.4-0.8,0.6-1.7,0.6-2.9c0-1.7-0.4-3-1.1-4.1c-0.8-1.1-1.8-1.8-3.2-2.3
		c-1.4-0.5-3-0.8-4.8-0.8h-16.1v23.7h4.9v-8.8h9.2c1.5,0,2.7,0.1,3.5,0.3c0.8,0.2,1.4,0.5,1.7,1c0.3,0.5,0.5,1.2,0.5,2.1v5.3h4.9
		v-5.7c0-1.3-0.3-2.3-0.8-3c-0.6-0.7-1.4-1.1-2.5-1.4c-0.6-0.1-1.3-0.2-2.2-0.3c0.5-0.1,0.9-0.2,1.4-0.3
		C160.3,27,161.1,26.6,161.8,26.1z M158.1,24.3c-0.7,0.7-1.8,1-3.1,1h-11.2v-7h11.2c1.4,0,2.4,0.3,3.1,0.8c0.7,0.6,1.1,1.4,1.1,2.5
		C159.1,22.8,158.8,23.7,158.1,24.3z M168.8,37.9h4.8V19.7h-4.8V37.9z M168.4,15.8h5.5v-4.2h-5.5V15.8z M195.8,25.1
		C195.8,25.1,195.8,25.1,195.8,25.1c-0.3-1.2-0.9-2.2-1.6-3.1c-0.7-0.9-1.6-1.5-2.8-2c-1.2-0.5-2.5-0.7-4.2-0.7
		c-1.9,0-3.6,0.4-5,1.2c-1.5,0.8-2.6,1.9-3.5,3.3c-0.8,1.4-1.3,3.1-1.3,5c0,1.9,0.4,3.5,1.3,5c0.9,1.4,2,2.5,3.5,3.3
		c1.5,0.8,3.1,1.2,5,1.2c1.6,0,3-0.3,4.1-0.9c1.1-0.6,2.1-1.3,2.8-2.3c0.7-0.9,1.2-2,1.6-3.1c0,0,0-0.1,0-0.1v1.3
		c0,0.8,0,1.6,0.1,2.5c0.1,0.9,0.1,1.6,0.2,2.2h4.4V12.3h-4.8V25.1z M194.9,31.8c-0.6,0.9-1.4,1.6-2.4,2.1c-1.1,0.5-2.3,0.7-3.7,0.7
		c-1.3,0-2.4-0.2-3.4-0.7c-1-0.5-1.7-1.2-2.3-2c-0.5-0.9-0.8-1.9-0.8-3.1c0-1.8,0.6-3.2,1.7-4.3c1.1-1.1,2.7-1.6,4.7-1.6
		c1.4,0,2.7,0.2,3.7,0.7c1,0.5,1.8,1.1,2.4,2c0.6,0.9,0.9,1.9,0.9,3.2C195.8,29.9,195.5,31,194.9,31.8z M226,23.8
		c-0.8-1.5-2-2.7-3.5-3.4c-1.6-0.8-3.6-1.1-6-1.1c-2.3,0-4.4,0.4-6.1,1.1c-1.7,0.8-3.1,1.9-4.1,3.3c-1,1.4-1.5,3.2-1.5,5.2
		c0,2,0.5,3.7,1.5,5.1c1,1.4,2.4,2.5,4.2,3.2c1.8,0.7,3.8,1.1,6.2,1.1c2.1,0,3.8-0.3,5.3-0.8c1.4-0.6,2.6-1.3,3.4-2.3
		c0.8-1,1.4-2.1,1.6-3.3h-4.6c-0.3,0.8-0.9,1.5-2,2c-1,0.5-2.3,0.8-3.8,0.8c-1.4,0-2.6-0.2-3.5-0.7s-1.8-1-2.3-1.8
		c-0.6-0.8-0.9-1.6-1-2.5H227C227.1,27.3,226.8,25.4,226,23.8z M209.9,26.9c0.3-1.1,1-2.1,2.1-2.8c1.1-0.8,2.5-1.2,4.3-1.2
		c1.8,0,3.2,0.4,4.2,1.1c1,0.7,1.6,1.7,1.7,2.9H209.9z"/>
</g>
</svg>
