<svg width="48" height="48" viewBox="0 0 48 48" fill="none" xmlns="http://www.w3.org/2000/svg">
<g clip-path="url(#clip0_124_119)">
<path d="M17.09 23.9998C14.95 22.5698 12.59 21.4498 10.04 20.7798C12.59 21.4498 14.95 22.5698 17.09 23.9998ZM37.96 20.7798C35.38 21.4598 32.99 22.5998 30.82 24.0498C32.98 22.5998 35.37 21.4598 37.96 20.7798Z" fill="#B7B0B0"/>
<path d="M30.99 19.27C30.62 13.69 28.36 8.24 24.12 4C19.84 8.28 17.48 13.72 17.02 19.27C19.58 20.64 21.95 22.39 24 24.52C26.05 22.39 28.42 20.63 30.99 19.27V19.27ZM17.99 24.57C17.71 24.36 17.39 24.19 17.1 24C17.39 24.19 17.7 24.36 17.99 24.57ZM30.82 24.05C30.56 24.23 30.27 24.38 30.02 24.56C30.27 24.38 30.55 24.23 30.82 24.05ZM24 30.91C19.7 24.34 12.35 20 4 20C4 30.63 10.72 39.65 20.07 42.97C21.34 43.42 22.65 43.76 24 44C25.35 43.77 26.66 43.43 27.93 42.97C37.28 39.65 44 30.63 44 20C35.65 20 28.3 24.34 24 30.91Z" fill="#B7B0B0"/>
</g>
<defs>
<clipPath id="clip0_124_119">
<rect width="48" height="48" fill="white"/>
</clipPath>
</defs>
</svg>
